# xmcd
#
# Track frame offsets: 
#        150
#        28261
#        57430
#        82867
#        101881
#        136000
#        157844
#        183979
#        199193
#        219514
#        249056
#        272800
#
# Disc length: 3947 seconds
#
# Revision: 3
# Processed by: cddbd v1.5.2PL0 Copyright (c) Steve Scherf et al.
# Submitted via: ExactAudioCopyFreeDBPlugin 1.0
#
DISCID=9d0f690c
DTITLE=Jon Lord  - Blues Project Live
DYEAR=2011
DGENRE=Blues
TTITLE0=Back at the Chicken Shack
TTITLE1=Houchie Couchie Man
TTITLE2=Wishing Well
TTITLE3=It Never Rains But It Pours
TTITLE4=Fog on the Highway
TTITLE5=Lazy
TTITLE6=Walkin' Blues
TTITLE7=Way Down in the Hole
TTITLE8=Houston
TTITLE9=Respect Yourself
TTITLE10=Blind Man
TTITLE11=I'm a Man
EXTD=
EXTT0=
EXTT1=
EXTT2=
EXTT3=
EXTT4=
EXTT5=
EXTT6=
EXTT7=
EXTT8=
EXTT9=
EXTT10=
EXTT11=
PLAYORDER=
